<mxfile host="app.diagrams.net" modified="2023-04-18T00:21:13.446Z" agent="Mozilla/5.0 (Windows NT 10.0; Win64; x64; rv:109.0) Gecko/20100101 Firefox/112.0" etag="Cq17bhHfkSAK7gJ0YWc3" version="21.1.8" type="github">
  <diagram name="Page-1" id="vrA9PL0npLH-3c56ybNk">
    <mxGraphModel dx="1434" dy="746" grid="1" gridSize="10" guides="1" tooltips="1" connect="1" arrows="1" fold="1" page="1" pageScale="1" pageWidth="850" pageHeight="1100" math="0" shadow="0">
      <root>
        <mxCell id="0" />
        <mxCell id="1" parent="0" />
        <mxCell id="bXJ8WaDDgky8bag2XriR-1" value="&lt;font style=&quot;font-size: 24px;&quot;&gt;Generate!&lt;/font&gt;" style="rounded=0;whiteSpace=wrap;html=1;" vertex="1" parent="1">
          <mxGeometry x="340" y="330" width="160" height="40" as="geometry" />
        </mxCell>
        <mxCell id="bXJ8WaDDgky8bag2XriR-2" value="&lt;font style=&quot;font-size: 24px;&quot;&gt;Create!&lt;/font&gt;" style="rounded=0;whiteSpace=wrap;html=1;" vertex="1" parent="1">
          <mxGeometry x="370" y="400" width="100" height="50" as="geometry" />
        </mxCell>
        <mxCell id="bXJ8WaDDgky8bag2XriR-3" value="&lt;font style=&quot;font-size: 36px;&quot;&gt;Dad Jokes!&lt;br&gt;&lt;/font&gt;" style="rounded=0;whiteSpace=wrap;html=1;" vertex="1" parent="1">
          <mxGeometry x="240" y="20" width="360" height="60" as="geometry" />
        </mxCell>
        <mxCell id="bXJ8WaDDgky8bag2XriR-4" value="Actor" style="shape=umlActor;verticalLabelPosition=bottom;verticalAlign=top;html=1;outlineConnect=0;rotation=-45;" vertex="1" parent="1">
          <mxGeometry x="149.5" y="309.5" width="100" height="200" as="geometry" />
        </mxCell>
        <mxCell id="bXJ8WaDDgky8bag2XriR-6" value="Actor" style="shape=umlActor;verticalLabelPosition=bottom;verticalAlign=top;html=1;outlineConnect=0;rotation=35;" vertex="1" parent="1">
          <mxGeometry x="630" y="309.5" width="100" height="200" as="geometry" />
        </mxCell>
      </root>
    </mxGraphModel>
  </diagram>
</mxfile>
